# xmcd CD database file generated by OrangeCD 6.1
#
# Track frame offsets:
#	150
#	17214
#	37854
#	57743
#	77877
#	92220
#	112338
#	132460
#	152998
#	180105
#	198954
#	217346
#
# Disc length: 3108 seconds
#
# Revision: 2
# Processed by: cddbd v1.5.2PL0 Copyright (c) Steve Scherf et al.
# Submitted via: OrangeCD 6.1
#
DISCID=af0c220c
DTITLE=Joanna Connor - Big Girl Blues
DYEAR=1996
DGENRE=Blues
TTITLE0=Big Girl Blues
TTITLE1=43rd St.
TTITLE2=Fly Away
TTITLE3=They Love Each Other
TTITLE4=Sweet Baby
TTITLE5=You Should Be My Lover
TTITLE6=Sister Spirit
TTITLE7=You Oughta Know
TTITLE8=Heart Of The Blues
TTITLE9=Juicy
TTITLE10=Meditations
TTITLE11=Smoke It Up
EXTD=
EXTT0=
EXTT1=
EXTT2=
EXTT3=
EXTT4=
EXTT5=
EXTT6=
EXTT7=
EXTT8=
EXTT9=
EXTT10=
EXTT11=
PLAYORDER=
